<svg width="32" height="32" viewBox="0 0 32 32" fill="none" xmlns="http://www.w3.org/2000/svg">
<path d="M2.66699 4.6665C2.66699 3.56193 3.56242 2.6665 4.66699 2.6665H27.3337C28.4382 2.6665 29.3337 3.56193 29.3337 4.6665V27.3332C29.3337 28.4377 28.4382 29.3332 27.3337 29.3332H4.66699C3.56242 29.3332 2.66699 28.4377 2.66699 27.3332V4.6665Z" fill="#108EE9"/>
<path fill-rule="evenodd" clip-rule="evenodd" d="M16.1143 6.66635H15.8425C13.5832 6.71269 11.3579 7.59307 9.71714 9.10758C7.79363 10.8419 6.68983 13.3691 6.66536 15.9163V16.1533C6.71158 18.6474 7.78412 21.1165 9.65189 22.8322C11.3062 24.3891 13.5737 25.2959 15.8751 25.333H16.1415C19.2517 25.2986 22.2451 23.6027 23.8627 21.0251C25.2466 18.8884 25.672 16.2009 25.0576 13.7504C24.5424 11.6362 23.2429 9.70994 21.443 8.42314C19.9138 7.31108 18.0215 6.70077 16.1143 6.66635ZM11.8914 14.2512C12.7696 14.5015 13.7062 14.3492 14.5612 14.0805C15.0324 13.9292 15.4962 13.7563 15.9601 13.5833C16.71 13.3037 17.4599 13.0241 18.241 12.836C19.2864 12.5977 20.4609 12.7897 21.2982 13.4649C21.4639 13.6198 21.4635 13.8437 21.4632 14.0561C21.4631 14.1086 21.463 14.1603 21.4654 14.2102C21.4561 14.8936 21.4594 15.5773 21.4627 16.2609C21.4676 17.2683 21.4725 18.2756 21.4369 19.282C21.3107 19.2297 21.1852 19.1742 21.0595 19.1186C20.5421 18.8899 20.0218 18.6598 19.44 18.6492C18.2265 18.5842 17.1048 18.9764 15.981 19.3694C15.0665 19.6892 14.1507 20.0094 13.1828 20.0842C12.3046 20.1438 11.3871 19.9413 10.6748 19.4263C10.5288 19.2296 10.5361 18.9834 10.5432 18.7423C10.5461 18.6443 10.549 18.5472 10.5415 18.4546C10.5551 17.8429 10.5491 17.23 10.5431 16.6171C10.5334 15.6289 10.5238 14.6406 10.5959 13.6568C10.7562 13.7263 10.9103 13.8091 11.0645 13.8918C11.3301 14.0343 11.5955 14.1767 11.8914 14.2512Z" fill="white"/>
</svg>
