<svg width="16" height="16" viewBox="0 0 16 16" fill="none" xmlns="http://www.w3.org/2000/svg">
<path d="M12.1951 2.86177C12.4554 2.60142 12.8776 2.60142 13.1379 2.86177C13.3983 3.12212 13.3983 3.54423 13.1379 3.80458L8.94265 7.99984L13.1379 12.1951C13.3983 12.4554 13.3983 12.8776 13.1379 13.1379C12.8776 13.3983 12.4554 13.3983 12.1951 13.1379L7.99984 8.94265L3.80458 13.1379C3.54423 13.3983 3.12212 13.3983 2.86177 13.1379C2.60142 12.8776 2.60142 12.4554 2.86177 12.1951L7.05703 7.99984L2.86177 3.80458C2.60142 3.54423 2.60142 3.12212 2.86177 2.86177C3.12212 2.60142 3.54423 2.60142 3.80458 2.86177L7.99984 7.05703L12.1951 2.86177Z" fill="#4E5764"/>
</svg>
