<svg width="32" height="32" viewBox="0 0 32 32" fill="none" xmlns="http://www.w3.org/2000/svg">
<path opacity="0.4" d="M26.3865 5.62664C22.4399 1.6933 16.0399 1.6933 12.1199 5.62664C9.35987 8.35997 8.5332 12.2933 9.59987 15.76L3.3332 22.0266C2.8932 22.48 2.58654 23.3733 2.67987 24.0133L3.07987 26.92C3.22654 27.88 4.11987 28.7866 5.07987 28.92L7.98654 29.32C8.62654 29.4133 9.51987 29.12 9.9732 28.6533L11.0665 27.56C11.3332 27.3066 11.3332 26.88 11.0665 26.6133L8.47987 24.0266C8.0932 23.64 8.0932 23 8.47987 22.6133C8.86654 22.2266 9.50654 22.2266 9.8932 22.6133L12.4932 25.2133C12.7465 25.4666 13.1732 25.4666 13.4265 25.2133L16.2532 22.4C19.7065 23.48 23.6399 22.64 26.3865 19.9066C30.3199 15.9733 30.3199 9.55997 26.3865 5.62664ZM19.3332 16C17.4932 16 15.9999 14.5066 15.9999 12.6666C15.9999 10.8266 17.4932 9.3333 19.3332 9.3333C21.1732 9.3333 22.6665 10.8266 22.6665 12.6666C22.6665 14.5066 21.1732 16 19.3332 16Z" fill="#0050AE"/>
<path d="M19.3333 16C21.1743 16 22.6667 14.5076 22.6667 12.6666C22.6667 10.8257 21.1743 9.33331 19.3333 9.33331C17.4924 9.33331 16 10.8257 16 12.6666C16 14.5076 17.4924 16 19.3333 16Z" fill="#0050AE"/>
</svg>
