<svg width="128" height="128" viewBox="0 0 128 128" fill="none" xmlns="http://www.w3.org/2000/svg">
<ellipse cx="64" cy="62.5" rx="62" ry="62.5" fill="#EFF1F4"/>
<path d="M85.8484 108.021L83.5007 106.948L84.3693 104.03L80.7774 102.093L76.082 88.4394C77.4671 87.9493 78.8757 87.2958 78.8757 87.2958L73.8751 74.9491L72.6309 75.3458V73.9221C65.2122 72.4751 50.5391 82.0677 50.5391 82.0677C50.6665 85.1807 51.6489 88.1995 53.3798 90.7967L55.2345 92.0804L60.6341 115.7L63.4749 117.497L79.4627 127.604C79.8852 127.86 80.3078 128.21 80.8243 127.837C81.3408 127.463 81.106 126.88 80.8243 126.413C79.9549 124.391 79.6089 122.184 79.8181 119.995C80.0272 117.806 80.7848 115.703 82.0216 113.88L85.8484 108.021Z" fill="url(#paint0_linear_108_1148)"/>
<path d="M54.4832 81.4613L52.8398 71.822C52.8456 69.52 52.1229 67.2745 50.7739 65.4035C49.3868 64.273 47.9367 63.221 46.4306 62.2527C44.223 59.9862 42.7227 57.1328 42.1109 54.0371L35.866 33.148C35.4779 32.1124 35.3178 31.0061 35.3965 29.9038C35.5373 28.8302 35.9834 27.2664 37.0868 27.1264C38.871 26.8696 40.6553 29.2036 41.1953 30.9074C42.3691 34.5717 43.6603 37.6059 44.8342 41.2469C44.3646 35.1086 43.449 29.577 42.9795 23.392C42.7734 22.3115 42.9388 21.1935 43.449 20.2178C43.9879 19.7081 44.6826 19.3922 45.4228 19.3203C46.163 19.2484 46.9062 19.4247 47.534 19.821C49.647 27.3131 50.2339 33.1247 52.3468 40.6167C51.9947 32.7046 53.2389 26.0527 52.8868 18.1406C52.7419 17.114 52.9188 16.0679 53.3935 15.1449C53.8683 14.2219 54.6177 13.4668 55.5397 12.9825C57.0422 12.3523 58.3099 14.1495 58.4743 15.1297C58.756 17.0669 58.9673 18.8408 59.1786 20.4745C60.1177 27.8966 60.7516 32.4945 61.6906 39.9165C62.0428 33.4048 62.888 28.2467 63.2166 21.7349C63.0996 20.306 63.4992 18.8826 64.3435 17.7205C64.6269 17.381 64.9793 17.105 65.3775 16.9105C65.7758 16.716 66.2109 16.6075 66.6544 16.5921C67.0978 16.5767 67.5395 16.6547 67.9505 16.821C68.3614 16.9873 68.7324 17.2381 69.0389 17.5571C70.0719 28.3167 69.3676 32.1911 68.8511 43.2308C70.5649 45.9149 72.4196 47.7354 74.0865 46.2183C75.7533 44.7012 77.3498 41.2469 79.134 39.8465C80.1667 39.2746 81.3354 38.9901 82.517 39.0229C83.6986 39.0558 84.8495 39.4048 85.8484 40.0332C82.8219 46.8089 78.5549 52.9663 73.2648 58.1916C71.569 59.6041 70.1176 61.2835 68.9685 63.1629C67.7079 66.2556 67.5668 69.6876 68.5694 72.8723L69.5084 76.4899L54.4832 81.4613Z" fill="#F5BA9E"/>
<path d="M41.5469 41.8296C41.5469 41.8296 58.1686 38.492 65.1882 39.1222" stroke="black" stroke-width="0.582674" stroke-linecap="round" stroke-linejoin="round"/>
<path d="M45.4204 41.2446C45.0917 36.7867 44.4579 32.3521 43.9883 27.9176C43.8709 26.8206 43.7535 25.7236 43.6596 24.6267C43.5421 23.6109 43.5421 22.585 43.6596 21.5692C43.9414 19.842 46.0073 19.562 47.3455 20.3322C47.4133 20.3705 47.4881 20.3951 47.5655 20.4047C47.6429 20.4143 47.7215 20.4087 47.7967 20.3881C47.8719 20.3675 47.9423 20.3324 48.0039 20.2847C48.0654 20.2371 48.1169 20.1779 48.1555 20.1104C48.194 20.043 48.2188 19.9687 48.2285 19.8917C48.2381 19.8148 48.2324 19.7367 48.2117 19.6619C48.191 19.5871 48.1557 19.5171 48.1078 19.4559C48.0598 19.3947 48.0003 19.3435 47.9324 19.3052C47.2408 18.8968 46.4423 18.703 45.6392 18.7488C44.8361 18.7945 44.065 19.0777 43.4249 19.562C41.9928 20.6589 42.4623 23.1096 42.5797 24.6267C43.0727 30.1815 43.9179 35.6897 44.3405 41.2446C44.3405 41.9914 45.5847 41.9914 45.5143 41.2446H45.4204Z" fill="black"/>
<path d="M69.3438 17.1356C68.7255 16.5472 67.9256 16.1834 67.0736 16.1029C66.2215 16.0224 65.3671 16.23 64.6484 16.6921C62.7702 17.9525 62.7702 20.3798 62.6528 22.3637C62.3242 27.9419 61.5025 33.4734 61.1973 39.0516C61.1973 39.7985 62.3476 39.7985 62.3711 39.0516C62.6294 34.6404 63.1928 30.2759 63.5684 25.888C63.5684 24.791 63.7563 23.6941 63.8032 22.5737C63.7988 21.5391 63.9011 20.5068 64.1084 19.4929C64.2157 19.0204 64.436 18.5807 64.7507 18.2109C65.0654 17.8412 65.4652 17.5523 65.9161 17.369C66.3681 17.2031 66.8584 17.1699 67.3288 17.2734C67.7991 17.3768 68.2297 17.6126 68.569 17.9525C69.0855 18.5126 69.9072 17.6724 69.3907 17.1356H69.3438Z" fill="black"/>
<path d="M86.0122 39.4034C84.4277 38.5223 82.6031 38.1628 80.8003 38.3765C80.0027 38.5559 79.2501 38.8946 78.5882 39.3721C77.9264 39.8495 77.369 40.4557 76.9501 41.1539C75.9931 42.7024 74.9095 44.17 73.7103 45.5418C71.9495 47.1989 70.0479 44.0714 69.2262 42.8344C68.8271 42.2042 67.8176 42.8344 68.2167 43.4179C69.1557 44.8649 70.5644 46.9655 72.3721 47.2223C74.1798 47.479 75.1424 45.7985 75.9641 44.6082C76.8897 42.9238 78.0873 41.4021 79.5091 40.1036C80.437 39.6396 81.4703 39.4236 82.5076 39.4768C83.5448 39.53 84.5503 39.8506 85.4253 40.407C86.1061 40.7571 86.693 39.7535 86.0122 39.4034Z" fill="black"/>
<path d="M55.0694 81.298L53.8486 73.5959C53.6694 71.2707 53.2123 68.975 52.4869 66.7573C51.6269 65.1598 50.3011 63.8581 48.6836 63.023C46.7217 61.8425 45.1726 60.0906 44.2465 58.0049C43.3092 55.7649 42.5248 53.4646 41.8988 51.1197L39.5511 43.4409L37.2034 35.7388C36.8278 34.4785 36.3817 33.2181 36.1 31.9344C35.8183 30.6508 35.6304 28.1301 37.2034 27.6866C37.2774 27.6652 37.3464 27.6294 37.4065 27.5815C37.4666 27.5335 37.5166 27.4742 37.5537 27.407C37.5907 27.3398 37.6141 27.2661 37.6225 27.1899C37.6309 27.1137 37.6241 27.0366 37.6025 26.9631C37.5809 26.8895 37.545 26.8209 37.4967 26.7612C37.4485 26.7014 37.3889 26.6517 37.3213 26.6148C37.2537 26.578 37.1795 26.5548 37.1029 26.5464C37.0262 26.5381 36.9487 26.5449 36.8747 26.5663C35.2783 27.0098 34.7383 28.9003 34.7148 30.464C34.8051 31.8145 35.0979 33.144 35.5835 34.4085L36.8982 38.7963C38.5651 44.3512 40.138 49.9527 41.8988 55.4842C42.4928 57.5962 43.4715 59.5818 44.7865 61.3425C46.242 63.1397 48.3784 63.8866 50.0453 65.4503C52.0878 67.3642 52.0173 70.4684 52.393 73.0357L53.8486 81.6248C53.9894 82.3483 55.1163 82.0449 54.9989 81.298H55.0694Z" fill="black"/>
<path d="M52.8867 81.9048C53.2858 82.0448 72.6308 75.3463 72.6308 75.3463L73.969 75.0195" stroke="black" stroke-width="0.582674" stroke-linecap="round" stroke-linejoin="round"/>
<path d="M50.4453 81.9961C50.5002 85.1215 51.489 88.1601 53.286 90.7252L55.1407 92.0088L60.5404 115.629" stroke="black" stroke-width="0.582674" stroke-linecap="round" stroke-linejoin="round"/>
<path d="M78.8758 87.2969L61.9489 93.762L55.1406 92.0115" stroke="black" stroke-width="0.582674" stroke-linecap="round" stroke-linejoin="round"/>
<path d="M57.9333 60.9703C57.9333 60.9703 56.9238 51.331 71.8317 46.4297" stroke="black" stroke-width="0.582674" stroke-linecap="round" stroke-linejoin="round"/>
<path d="M77.5609 104.264C73.1531 107.671 69.5005 111.946 66.8319 116.821C66.5971 117.288 67.1371 117.988 67.6536 117.615L78.3826 109.516L77.5139 108.862L74.4619 120.742C74.4387 120.884 74.4695 121.03 74.5481 121.152C74.6268 121.273 74.7478 121.361 74.8879 121.398C75.0279 121.436 75.1771 121.421 75.3065 121.356C75.436 121.291 75.5365 121.18 75.5888 121.045L78.6643 109.166C78.6643 108.722 78.2182 108.185 77.7956 108.512L67.0432 116.611L67.9353 117.358C70.5537 112.576 74.1338 108.381 78.453 105.034C79.0399 104.568 78.2182 103.751 77.6313 104.218L77.5609 104.264Z" fill="black"/>
<path d="M56.1975 12.3285C52.8638 12.3285 52.4647 17.4865 52.2534 19.7505C51.6546 26.4629 51.5134 33.208 51.8308 39.9394C51.8308 40.6862 53.0516 40.6862 53.0046 39.9394C52.719 34.1996 52.7739 28.448 53.169 22.7146C53.0527 20.036 53.5088 17.3632 54.5072 14.8725C54.8593 14.2657 55.6106 13.4955 56.1975 13.4955C56.7844 13.4955 56.9488 12.3051 56.1975 12.3285Z" fill="black"/>
<defs>
<linearGradient id="paint0_linear_108_1148" x1="50.4452" y1="100.809" x2="85.8484" y2="100.809" gradientUnits="userSpaceOnUse">
<stop stop-color="#F39B2D"/>
<stop offset="0.01" stop-color="#F3972D"/>
<stop offset="0.08" stop-color="#EF722D"/>
<stop offset="0.16" stop-color="#EC542E"/>
<stop offset="0.24" stop-color="#E93C2E"/>
<stop offset="0.33" stop-color="#E72B2E"/>
<stop offset="0.43" stop-color="#E6212E"/>
<stop offset="0.55" stop-color="#E61E2E"/>
<stop offset="0.81" stop-color="#B22027"/>
</linearGradient>
</defs>
</svg>
