<svg width="32" height="32" viewBox="0 0 32 32" fill="none" xmlns="http://www.w3.org/2000/svg">
<path opacity="0.4" d="M13.9869 2.97333L7.33354 5.46668C5.8002 6.04001 4.54688 7.85333 4.54688 9.49333V19.4C4.54688 20.9733 5.58689 23.04 6.85356 23.9867L12.5869 28.2667C14.4669 29.68 17.5602 29.68 19.4402 28.2667L25.1735 23.9867C26.4402 23.04 27.4802 20.9733 27.4802 19.4V9.49333C27.4802 7.85333 26.2269 6.04001 24.6935 5.46668L18.0402 2.97333C16.9069 2.56 15.0935 2.56 13.9869 2.97333Z" fill="#0050AE"/>
<path d="M15.8667 15.0667C15.8934 15.0667 15.92 15.0667 15.9467 15.0667H15.9734H16C17.5334 15.0134 18.7334 13.7734 18.7467 12.2267C18.7467 10.6534 17.4667 9.37335 15.8934 9.37335C14.3201 9.37335 13.04 10.6534 13.04 12.2267C13.0667 13.76 14.2667 15.0134 15.8667 15.0667Z" fill="#0050AE"/>
<path d="M18.9199 17.88C17.3065 16.8134 14.6932 16.8134 13.0665 17.88C12.3199 18.3867 11.8799 19.1067 11.8799 19.8533C11.8799 20.6133 12.3065 21.3067 13.0665 21.8133C13.8799 22.3467 14.9332 22.6267 15.9865 22.6267C17.0399 22.6267 18.1065 22.36 18.9065 21.8133C19.6532 21.3067 20.0932 20.5867 20.0932 19.84C20.1066 19.08 19.6799 18.3867 18.9199 17.88Z" fill="#0050AE"/>
</svg>
