<svg width="21" height="21" viewBox="0 0 21 21" fill="none" xmlns="http://www.w3.org/2000/svg">
<path d="M13.2516 0.25H7.25088C2.25025 0.25 0.25 2.25025 0.25 7.25087V13.2516C0.25 18.2523 2.25025 20.2525 7.25088 20.2525H13.2516C18.2523 20.2525 20.2525 18.2523 20.2525 13.2516V7.25087C20.2525 2.25025 18.2523 0.25 13.2516 0.25ZM14.9518 8.32244L9.65118 13.6231C9.45115 13.8231 9.19397 13.9231 8.92251 13.9231C8.65105 13.9231 8.39388 13.8231 8.19385 13.6231L5.53638 10.9656C5.13632 10.5656 5.13632 9.92264 5.53638 9.52259C5.93642 9.12254 6.57936 9.12254 6.97941 9.52259L8.90823 11.4514L13.4945 6.86511C13.8946 6.46506 14.5375 6.46506 14.9375 6.86511C15.3376 7.26516 15.3519 7.92239 14.9518 8.32244Z" fill="#00C036"/>
</svg>
