<svg width="28" height="28" viewBox="0 0 28 28" fill="none" xmlns="http://www.w3.org/2000/svg">
<circle opacity="0.75" cx="14" cy="14" r="14" fill="#2C2C2C" fill-opacity="0.7"/>
<g opacity="0.8" clip-path="url(#clip0_15_851)">
<path d="M14 4C19.5228 4 24 8.47715 24 14C24 19.5228 19.5228 24 14 24C8.47715 24 4 19.5228 4 14C4 8.47715 8.47715 4 14 4ZM14 8C13.5858 8 13.25 8.33579 13.25 8.75V13.25H8.75C8.33579 13.25 8 13.5858 8 14C8 14.4142 8.33579 14.75 8.75 14.75H13.25V19.25C13.25 19.6642 13.5858 20 14 20C14.4142 20 14.75 19.6642 14.75 19.25V14.75H19.25C19.6642 14.75 20 14.4142 20 14C20 13.5858 19.6642 13.25 19.25 13.25H14.75V8.75C14.75 8.33579 14.4142 8 14 8Z" fill="white"/>
</g>
<defs>
<clipPath id="clip0_15_851">
<rect width="20" height="20" fill="white" transform="translate(4 4)"/>
</clipPath>
</defs>
</svg>
