<svg width="28" height="28" viewBox="0 0 28 28" fill="none" xmlns="http://www.w3.org/2000/svg">
<circle opacity="0.75" cx="14" cy="14" r="14" fill="#2C2C2C" fill-opacity="0.7"/>
<g opacity="0.8">
<path fill-rule="evenodd" clip-rule="evenodd" d="M12.9125 20.729L13.4323 21.2562C13.752 21.5804 14.2489 21.5814 14.5697 21.2585L15.0875 20.7374L15.1171 20.7074C18.963 16.8139 21.5 14.2456 21.5 11.0954C21.5 8.52197 19.685 6.5 17.375 6.5C16.6383 6.5 15.9183 6.7157 15.2838 7.09599C14.7944 7.38931 14.356 7.78055 14 8.24625C13.644 7.78055 13.2056 7.38931 12.7162 7.09599C12.0817 6.7157 11.3617 6.5 10.625 6.5C8.315 6.5 6.5 8.52197 6.5 11.0954C6.5 14.2511 9.04582 16.8229 12.903 20.7194L12.9125 20.729Z" fill="white"/>
</g>
</svg>
