<svg width="16" height="16" viewBox="0 0 16 16" fill="none" xmlns="http://www.w3.org/2000/svg">
<path fill-rule="evenodd" clip-rule="evenodd" d="M9.62081 3.95401C8.69867 3.12644 7.30119 3.12644 6.37905 3.95401C5.50185 4.74123 5.31712 6.04492 5.94108 7.04485L7.20928 9.07721C7.06798 9.38226 6.8965 9.70793 6.6804 9.98807C6.58783 10.1081 6.49407 10.2109 6.39828 10.2962L4.80991 7.7507C3.84313 6.20138 4.12936 4.18143 5.4885 2.96168C6.91729 1.67944 9.08257 1.67944 10.5114 2.96168C11.8705 4.18143 12.1567 6.20139 11.19 7.75071L8.57934 11.9344C8.31193 12.3629 7.68793 12.3629 7.42052 11.9344L7.1094 11.4358C7.35681 11.2473 7.56468 11.0247 7.73611 10.8025C7.99271 10.4698 8.19529 10.1033 8.35172 9.78053L10.0588 7.04485C10.6827 6.04492 10.498 4.74123 9.62081 3.95401ZM7.99992 6.27026C8.36811 6.27026 8.66659 5.97179 8.66659 5.6036C8.66659 5.23541 8.36811 4.93693 7.99992 4.93693C7.63173 4.93693 7.33325 5.23541 7.33325 5.6036C7.33325 5.97179 7.63173 6.27026 7.99992 6.27026ZM7.99992 6.93693C8.7363 6.93693 9.33325 6.33998 9.33325 5.6036C9.33325 4.86722 8.7363 4.27026 7.99992 4.27026C7.26354 4.27026 6.66659 4.86722 6.66659 5.6036C6.66659 6.33998 7.26354 6.93693 7.99992 6.93693ZM2.62593 10.1372C2.71942 9.66979 3.12983 9.33333 3.60651 9.33333H4.66657C5.03476 9.33333 5.33323 9.63181 5.33323 10C5.33323 10.3682 5.03476 10.6667 4.66657 10.6667H3.87978L3.47978 12.6667L12.52 12.6667L12.12 10.6667H11.3332C10.965 10.6667 10.6666 10.3682 10.6666 10C10.6666 9.63181 10.965 9.33333 11.3332 9.33333H12.3933C12.87 9.33333 13.2804 9.66979 13.3739 10.1372L13.8275 12.4052C13.9925 13.2302 13.3614 14 12.52 14H3.47978C2.63839 14 2.00733 13.2302 2.17234 12.4052L2.62593 10.1372Z" fill="#001A41"/>
</svg>
