<svg width="24" height="24" viewBox="0 0 24 24" fill="none" xmlns="http://www.w3.org/2000/svg">
<path d="M12 16C14.2091 16 16 14.2091 16 12C16 9.79086 14.2091 8 12 8C9.79086 8 8 9.79086 8 12C8 14.2091 9.79086 16 12 16Z" fill="#8BC53F" stroke="white" stroke-width="0.5" stroke-miterlimit="10"/>
<path d="M10 12.0408L11.016 12.9249C11.1257 13.0208 11.3333 13.0255 11.4515 12.9354L14 11" stroke="white" stroke-width="0.5" stroke-miterlimit="10" stroke-linecap="round" stroke-linejoin="round"/>
<path d="M2 9V6.5C2 4.01 4.01 2 6.5 2H9" stroke="#0050AE" stroke-width="1.5" stroke-linecap="round" stroke-linejoin="round"/>
<path d="M15 2H17.5C19.99 2 22 4.01 22 6.5V9" stroke="#0050AE" stroke-width="1.5" stroke-linecap="round" stroke-linejoin="round"/>
<path d="M22 16V17.5C22 19.99 19.99 22 17.5 22H16" stroke="#0050AE" stroke-width="1.5" stroke-linecap="round" stroke-linejoin="round"/>
<path d="M9 22H6.5C4.01 22 2 19.99 2 17.5V15" stroke="#0050AE" stroke-width="1.5" stroke-linecap="round" stroke-linejoin="round"/>
<g opacity="0.4">
<path d="M17.3727 9.27261V14.7272C17.3727 16.909 16.3 17.9999 14.1545 17.9999H9.86366C7.71823 17.9999 6.64551 16.909 6.64551 14.7272V9.27261C6.64551 7.09079 7.71823 5.99988 9.86366 5.99988H14.1545C16.3 5.99988 17.3727 7.09079 17.3727 9.27261Z" stroke="#008E53" stroke-width="0.5" stroke-linecap="round" stroke-linejoin="round"/>
</g>
</svg>
