<svg width="28" height="28" viewBox="0 0 28 28" fill="none" xmlns="http://www.w3.org/2000/svg">
<circle opacity="0.75" cx="14" cy="14" r="14" fill="#2C2C2C" fill-opacity="0.7"/>
<g opacity="0.8">
<path fill-rule="evenodd" clip-rule="evenodd" d="M14.0021 19.3623C14.0028 19.363 14.0034 19.3636 14.0041 19.3643C14.3264 19.038 14.6359 18.7244 14.9328 18.4218L15.0528 18.3006L15.0523 18.3C16.4833 16.8391 17.6121 15.6369 18.437 14.5127C19.4429 13.1417 19.8333 12.0989 19.8333 11.0954C19.8333 9.46859 18.7194 8.30375 17.375 8.30375C16.5929 8.30375 15.8022 8.71838 15.2842 9.396L14 11.076L12.7158 9.396C12.1978 8.71838 11.4071 8.30375 10.625 8.30375C9.28062 8.30375 8.16667 9.46859 8.16667 11.0954C8.16667 12.0989 8.55711 13.1416 9.56269 14.5112C10.4685 15.7449 11.7413 17.0723 13.3785 18.7315C13.0797 19.021 12.7562 19.2068 12.3517 19.215C11.9919 19.2223 11.5203 19.09 10.8967 18.6724C8.18766 15.847 6.5 13.6648 6.5 11.0954C6.5 8.52197 8.315 6.5 10.625 6.5C11.3617 6.5 12.0817 6.7157 12.7162 7.09599C13.2056 7.38931 13.644 7.78055 14 8.24625C14.356 7.78055 14.7944 7.38931 15.2838 7.09599C15.9183 6.7157 16.6383 6.5 17.375 6.5C19.685 6.5 21.5 8.52197 21.5 11.0954C21.5 14.2456 18.963 16.8139 15.1171 20.7074L15.0875 20.7374L14.5697 21.2585C14.2489 21.5814 13.752 21.5804 13.4323 21.2562L12.9125 20.729L12.903 20.7194C12.7129 20.5274 12.526 20.3385 12.3424 20.1527C12.3505 20.1526 12.3586 20.1525 12.3666 20.1524C13.0556 20.1385 13.575 19.7939 13.9795 19.3853L14.0021 19.3623Z" fill="white"/>
</g>
</svg>
