<svg width="16" height="16" viewBox="0 0 16 16" fill="none" xmlns="http://www.w3.org/2000/svg">
<path fill-rule="evenodd" clip-rule="evenodd" d="M8.75 2.75C8.75 2.33579 8.41421 2 8 2C7.58579 2 7.25 2.33579 7.25 2.75L7.25 7.24686L5.53033 5.52718C5.23744 5.23428 4.76257 5.23428 4.46967 5.52717C4.17678 5.82006 4.17678 6.29494 4.46967 6.58783L6.93931 9.0575C7.52509 9.64328 8.47482 9.6433 9.06061 9.05754L11.5304 6.58785C11.8233 6.29496 11.8234 5.82009 11.5305 5.52719C11.2376 5.23429 10.7627 5.23427 10.4698 5.52716L8.75 7.24687L8.75 2.75ZM2.75 8C3.16421 8 3.5 8.33579 3.5 8.75V11.75C3.5 11.7671 3.50057 11.784 3.50169 11.8008C3.07152 11.8157 2.54058 11.7514 2 11.517V8.75C2 8.33579 2.33579 8 2.75 8ZM2.05647 12.2531C2.28499 13.2536 3.18032 14 4.25 14H11.75C12.9926 14 14 12.9926 14 11.75V8.75C14 8.33579 13.6642 8 13.25 8C12.8358 8 12.5 8.33579 12.5 8.75V11.75C12.5 12.1642 12.1642 12.5 11.75 12.5H4.25C3.53709 12.5 2.74886 12.4857 2.05647 12.2531Z" fill="#001A41"/>
</svg>
