<svg width="25" height="24" viewBox="0 0 25 24" fill="none" xmlns="http://www.w3.org/2000/svg">
<path fill-rule="evenodd" clip-rule="evenodd" d="M12.6693 18.4348C12.6701 18.4356 12.6709 18.4364 12.6716 18.4371C13.0584 18.0456 13.4299 17.6692 13.7861 17.3062L13.9301 17.1608L13.9295 17.16C15.6467 15.407 17.0013 13.9643 17.9911 12.6153C19.1982 10.97 19.6667 9.71869 19.6667 8.51447C19.6667 6.56231 18.33 5.1645 16.7167 5.1645C15.7783 5.1645 14.8293 5.66206 14.2078 6.4752L12.6667 8.49121L11.1257 6.4752C10.5042 5.66206 9.55523 5.1645 8.61675 5.1645C7.00349 5.1645 5.66675 6.56231 5.66675 8.51447C5.66675 9.71866 6.13528 10.9699 7.34198 12.6134C8.42892 14.0939 9.95632 15.6867 11.9209 17.6778C11.5624 18.0252 11.1741 18.2482 10.6888 18.258C10.2571 18.2667 9.69111 18.108 8.94279 17.6069C5.69195 14.2164 3.66675 11.5977 3.66675 8.51447C3.66675 5.42637 5.84475 3 8.61675 3C9.50084 3 10.3648 3.25884 11.1262 3.71519C11.7134 4.06717 12.2396 4.53666 12.6667 5.0955C13.0939 4.53666 13.6201 4.06717 14.2073 3.71519C14.9687 3.25884 15.8327 3 16.7167 3C19.4887 3 21.6667 5.42637 21.6667 8.51447C21.6667 12.2947 18.6224 15.3767 14.0073 20.0489L13.9717 20.0848L13.3503 20.7103C12.9654 21.0977 12.3691 21.0964 11.9856 20.7075L11.3617 20.0748L11.3503 20.0633C11.1222 19.8328 10.8979 19.6062 10.6776 19.3832C10.6873 19.3832 10.697 19.383 10.7067 19.3828C11.5335 19.3662 12.1568 18.9527 12.6421 18.4623L12.6693 18.4348Z" fill="#757F90"/>
</svg>
