<svg width="13" height="19" viewBox="0 0 13 19" fill="none" xmlns="http://www.w3.org/2000/svg">
<path fill-rule="evenodd" clip-rule="evenodd" d="M9.1875 18.3H3.5625C1.60616 18.3 0 16.8009 0 14.925V3.375C0 1.49908 1.60616 0 3.5625 0H9.1875C11.1438 0 12.75 1.49908 12.75 3.375V14.925C12.75 16.8009 11.1438 18.3 9.1875 18.3ZM9.1875 16.8C10.1823 16.8 10.9992 16.1629 11.2017 15.3286H1.54826C1.75076 16.1629 2.56767 16.8 3.5625 16.8H9.1875ZM1.5 13.8286H11.25V4.82857H1.5V13.8286ZM1.50063 3.32857C1.52772 2.3259 2.42978 1.5 3.5625 1.5H9.1875C10.3202 1.5 11.2223 2.3259 11.2494 3.32857H8.17442C8.39891 3.19898 8.55 2.95642 8.55 2.67857C8.55 2.26436 8.21421 1.92857 7.8 1.92857H5.7C5.28579 1.92857 4.95 2.26436 4.95 2.67857C4.95 2.95642 5.10109 3.19898 5.32558 3.32857H1.50063Z" fill="white"/>
<mask id="mask0_6187_114647" style="mask-type:luminance" maskUnits="userSpaceOnUse" x="0" y="0" width="13" height="19">
<path fill-rule="evenodd" clip-rule="evenodd" d="M9.1875 18.3H3.5625C1.60616 18.3 0 16.8009 0 14.925V3.375C0 1.49908 1.60616 0 3.5625 0H9.1875C11.1438 0 12.75 1.49908 12.75 3.375V14.925C12.75 16.8009 11.1438 18.3 9.1875 18.3ZM9.1875 16.8C10.1823 16.8 10.9992 16.1629 11.2017 15.3286H1.54826C1.75076 16.1629 2.56767 16.8 3.5625 16.8H9.1875ZM1.5 13.8286H11.25V4.82857H1.5V13.8286ZM1.50063 3.32857C1.52772 2.3259 2.42978 1.5 3.5625 1.5H9.1875C10.3202 1.5 11.2223 2.3259 11.2494 3.32857H8.17442C8.39891 3.19898 8.55 2.95642 8.55 2.67857C8.55 2.26436 8.21421 1.92857 7.8 1.92857H5.7C5.28579 1.92857 4.95 2.26436 4.95 2.67857C4.95 2.95642 5.10109 3.19898 5.32558 3.32857H1.50063Z" fill="white"/>
</mask>
<g mask="url(#mask0_6187_114647)">
<rect width="36" height="36" transform="translate(-12 -9)" fill="#1D1F23"/>
<rect x="-12" y="-9" width="36" height="36" fill="white"/>
</g>
</svg>
