<svg width="28" height="29" viewBox="0 0 28 29" fill="none" xmlns="http://www.w3.org/2000/svg">
<circle opacity="0.75" cx="14" cy="14.0625" r="14" fill="#2C2C2C" fill-opacity="0.7"/>
<g opacity="0.8">
<path fill-rule="evenodd" clip-rule="evenodd" d="M20 9.5C20 10.3284 19.3284 11 18.5 11C17.6716 11 17 10.3284 17 9.5C17 8.67157 17.6716 8 18.5 8C19.3284 8 20 8.67157 20 9.5ZM21.5 9.5C21.5 11.1569 20.1569 12.5 18.5 12.5C17.6677 12.5 16.9145 12.161 16.371 11.6136L12.4857 13.7056C12.4952 13.8025 12.5 13.9007 12.5 14C12.5 14.1137 12.4937 14.2258 12.4814 14.3362L16.0757 16.7324C16.6214 15.9854 17.504 15.5 18.5 15.5C20.1569 15.5 21.5 16.8431 21.5 18.5C21.5 20.1569 20.1569 21.5 18.5 21.5C16.8431 21.5 15.5 20.1569 15.5 18.5C15.5 18.3863 15.5063 18.2742 15.5186 18.1638L12.0765 15.869C11.8181 15.4884 11.5593 15.1605 11.28 14.9006C11.1519 14.7815 11.0194 14.6765 10.8811 14.5863C10.9577 14.4062 11 14.208 11 14C11 13.1716 10.3284 12.5 9.5 12.5C8.67157 12.5 8 13.1716 8 14C8 14.8284 8.67157 15.5 9.5 15.5C9.68588 15.5 9.86386 15.4662 10.0281 15.4044C10.1984 15.4713 10.3546 15.5763 10.5138 15.7244C10.717 15.9134 10.9207 16.1687 11.1492 16.5064C10.676 16.8184 10.1092 17 9.5 17C7.84315 17 6.5 15.6569 6.5 14C6.5 12.3431 7.84315 11 9.5 11C10.5189 11 11.4191 11.5079 11.9613 12.2844L15.6129 10.3182C15.5394 10.0581 15.5 9.78363 15.5 9.5C15.5 7.84315 16.8431 6.5 18.5 6.5C20.1569 6.5 21.5 7.84315 21.5 9.5ZM18.5 20C19.3284 20 20 19.3284 20 18.5C20 17.6716 19.3284 17 18.5 17C17.6716 17 17 17.6716 17 18.5C17 19.3284 17.6716 20 18.5 20Z" fill="white"/>
</g>
</svg>
