<svg width="28" height="28" viewBox="0 0 28 28" fill="none" xmlns="http://www.w3.org/2000/svg">
<circle opacity="0.75" cx="14" cy="14" r="14" fill="#2C2C2C" fill-opacity="0.7"/>
<g opacity="0.8">
<path fill-rule="evenodd" clip-rule="evenodd" d="M9.83333 7.33333C9.83333 6.8731 10.2064 6.5 10.6667 6.5H17.3333C17.7936 6.5 18.1667 6.8731 18.1667 7.33333C18.1667 7.79357 17.7936 8.16667 17.3333 8.16667H10.6667C10.2064 8.16667 9.83333 7.79357 9.83333 7.33333ZM12.3333 12.3333C11.8731 12.3333 11.5 12.7064 11.5 13.1667V17.3333C11.5 17.7936 11.8731 18.1667 12.3333 18.1667C12.7936 18.1667 13.1667 17.7936 13.1667 17.3333V13.1667C13.1667 12.7064 12.7936 12.3333 12.3333 12.3333ZM15.6667 12.3333C15.2064 12.3333 14.8333 12.7064 14.8333 13.1667V17.3333C14.8333 17.7936 15.2064 18.1667 15.6667 18.1667C16.1269 18.1667 16.5 17.7936 16.5 17.3333V13.1667C16.5 12.7064 16.1269 12.3333 15.6667 12.3333ZM7.33333 9C6.8731 9 6.5 9.3731 6.5 9.83333C6.5 10.2936 6.8731 10.6667 7.33333 10.6667H8.16667V17.3333C8.16667 17.5452 8.22984 17.6638 8.31108 17.7521C8.40859 17.858 8.578 17.9658 8.84091 18.0512C9.14278 18.1493 9.49584 18.1948 9.83333 18.2051V10.6667H18.1667V19C18.1667 19.4602 17.7936 19.8333 17.3333 19.8333H10.7164C10.0899 19.9053 9.15323 19.9052 8.32576 19.6363C8.29761 19.6271 8.26935 19.6176 8.24103 19.6077C8.51248 20.6947 9.49553 21.5 10.6667 21.5H17.3333C18.714 21.5 19.8333 20.3807 19.8333 19V10.6667H20.6667C21.1269 10.6667 21.5 10.2936 21.5 9.83333C21.5 9.3731 21.1269 9 20.6667 9H19.8333H8.16667H7.33333Z" fill="white"/>
</g>
</svg>
