<svg width="28" height="28" viewBox="0 0 28 28" fill="none" xmlns="http://www.w3.org/2000/svg">
<circle opacity="0.75" cx="14" cy="14" r="14" fill="#2C2C2C" fill-opacity="0.7"/>
<g opacity="0.8">
<path fill-rule="evenodd" clip-rule="evenodd" d="M14.9375 7.4375C14.9375 6.91973 14.5178 6.5 14 6.5C13.4822 6.5 13.0625 6.91973 13.0625 7.4375L13.0625 13.0586L10.9129 10.909C10.5468 10.5429 9.95321 10.5428 9.58709 10.909C9.22097 11.2751 9.22097 11.8687 9.58708 12.2348L12.6741 15.3219C13.4064 16.0541 14.5935 16.0541 15.3258 15.3219L18.4131 12.2348C18.7792 11.8687 18.7792 11.2751 18.4131 10.909C18.047 10.5429 17.4534 10.5428 17.0873 10.9089L14.9375 13.0586L14.9375 7.4375ZM7.4375 14C7.95527 14 8.375 14.4197 8.375 14.9375V18.6875C8.375 18.7088 8.37571 18.73 8.37712 18.751C7.8394 18.7696 7.17572 18.6893 6.5 18.3963V14.9375C6.5 14.4197 6.91973 14 7.4375 14ZM6.57058 19.3164C6.85624 20.5669 7.9754 21.5 9.3125 21.5H18.6875C20.2408 21.5 21.5 20.2408 21.5 18.6875V14.9375C21.5 14.4197 21.0803 14 20.5625 14C20.0447 14 19.625 14.4197 19.625 14.9375V18.6875C19.625 19.2053 19.2053 19.625 18.6875 19.625H9.3125C8.42137 19.625 7.43608 19.6071 6.57058 19.3164Z" fill="white"/>
</g>
</svg>
