<svg width="25" height="24" viewBox="0 0 25 24" fill="none" xmlns="http://www.w3.org/2000/svg">
<g clip-path="url(#clip0_5045_46909)">
<path d="M6.61897 1C5.3566 1 4.33325 1.98497 4.33325 3.2V19.2518C4.54695 19.3824 4.81347 19.4784 5.13253 19.5489C5.58997 19.65 6.09896 19.6847 6.61897 19.696V3.2L18.0475 3.2V10.8268C18.076 10.9543 18.0254 11.8654 18.0475 12C19.7618 13.1 18.619 14.75 20.3333 14.75V3.2C20.3333 1.98497 19.3099 1 18.0475 1H6.61897Z" fill="#757F90"/>
<path fill-rule="evenodd" clip-rule="evenodd" d="M8.33325 23C7.33325 22.5 6.33325 22 6.69653 20.7966C6.24051 20.795 6.56917 20.8 6.61897 20.8L6.69653 20.7966C6.24051 20.795 6.70073 20.8009 6.61897 20.8L6.33325 20.7966C5.75747 20.7842 5.43274 20.7438 4.87688 20.6211C4.69392 20.5806 4.51127 20.5299 4.33325 20.4665V20.8C4.33325 22.015 4.78517 23 6.04754 23H8.33325ZM6.69653 20.7966C6.24051 20.795 6.40639 20.7971 6.69653 20.7966V20.7966Z" fill="#757F90"/>
<rect x="9.33325" y="4" width="6" height="1" rx="0.5" fill="#757F90"/>
<path fill-rule="evenodd" clip-rule="evenodd" d="M11.4167 15.0835C11.4167 14.117 12.2002 13.3335 13.1667 13.3335H15.5C16.4665 13.3335 17.25 14.117 17.25 15.0835H19C19.6443 15.0835 20.1667 15.6058 20.1667 16.2502V21.5002C20.1667 22.1445 19.6443 22.6668 19 22.6668H9.66667C9.02233 22.6668 8.5 22.1445 8.5 21.5002V21.2047C8.87198 21.3905 9.28299 21.5002 9.66667 21.5002H19V16.2502H9.66667V20.6252C9.33674 20.6252 8.91614 20.4818 8.57919 20.2306C8.55172 20.2102 8.52533 20.1894 8.5 20.1683V16.2502C8.5 15.6058 9.02233 15.0835 9.66667 15.0835H11.4167ZM12.5833 15.0835C12.5833 14.7613 12.8445 14.5002 13.1667 14.5002H15.5C15.8222 14.5002 16.0833 14.7613 16.0833 15.0835H12.5833ZM17.8333 18.0002C18.1555 18.0002 18.4167 17.739 18.4167 17.4168C18.4167 17.0947 18.1555 16.8335 17.8333 16.8335C17.5112 16.8335 17.25 17.0947 17.25 17.4168C17.25 17.739 17.5112 18.0002 17.8333 18.0002ZM15.2083 18.8752C15.2083 19.3584 14.8166 19.7502 14.3333 19.7502C13.8501 19.7502 13.4583 19.3584 13.4583 18.8752C13.4583 18.3919 13.8501 18.0002 14.3333 18.0002C14.8166 18.0002 15.2083 18.3919 15.2083 18.8752ZM16.375 18.8752C16.375 20.0027 15.4609 20.9168 14.3333 20.9168C13.2058 20.9168 12.2917 20.0027 12.2917 18.8752C12.2917 17.7476 13.2058 16.8335 14.3333 16.8335C15.4609 16.8335 16.375 17.7476 16.375 18.8752Z" fill="#757F90"/>
</g>
<defs>
<clipPath id="clip0_5045_46909">
<rect width="24" height="24" fill="white" transform="translate(0.333252)"/>
</clipPath>
</defs>
</svg>
