<svg width="32" height="32" viewBox="0 0 32 32" fill="none" xmlns="http://www.w3.org/2000/svg">
<path d="M2.66748 4.66626C2.66748 3.56169 3.56291 2.66626 4.66748 2.66626H27.3342C28.4387 2.66626 29.3341 3.56169 29.3341 4.66626V27.3329C29.3341 28.4375 28.4387 29.3329 27.3341 29.3329H4.66748C3.56291 29.3329 2.66748 28.4375 2.66748 27.3329V4.66626Z" fill="#E82529"/>
<path d="M23.2085 22.5904C24.1221 22.6088 25.0355 22.6488 25.9458 22.7262C26.1865 22.7494 26.4284 22.766 26.6675 22.8043C25.0097 22.8257 23.3534 22.9127 21.7007 23.0397C19.6566 23.1984 17.6177 23.423 15.5884 23.7125C13.3422 24.0338 11.1032 24.4154 8.89404 24.9313C8.37779 25.05 7.86259 25.1782 7.34717 25.3014C7.08218 25.3647 6.79379 25.3306 6.5542 25.2018C6.1471 24.9837 5.74157 24.762 5.33447 24.5436C6.50951 24.2469 7.70128 24.018 8.89502 23.8072C11.3622 23.3797 13.85 23.0714 16.3442 22.8434C18.6254 22.6422 20.9181 22.5469 23.2085 22.5904ZM14.7007 15.607C14.7679 15.6092 14.8488 15.5968 14.8989 15.652C14.9477 15.696 14.9445 15.7641 14.9351 15.8229C14.8288 16.614 14.7263 17.4059 14.6128 18.1959C14.5227 18.8188 14.4701 19.4502 14.313 20.0621C14.2117 20.4555 14.0719 20.8471 13.8364 21.1842C13.5739 21.5476 13.1726 21.7867 12.7612 21.9576C12.504 22.0589 12.239 22.148 11.9653 22.194C11.8665 22.2038 11.8321 22.0942 11.8042 22.0231C11.7012 21.7152 11.599 21.407 11.4985 21.0983C11.4654 21.0307 11.5085 20.9572 11.5776 20.9362C11.7715 20.8565 11.9705 20.7864 12.1519 20.6803C12.3608 20.5667 12.5416 20.3991 12.6519 20.1901C12.7972 19.9238 12.8269 19.6179 12.8755 19.3248C13.0543 18.153 13.2114 16.978 13.3774 15.8043C13.3844 15.7162 13.4484 15.633 13.5386 15.6139C13.925 15.5991 14.3134 15.6128 14.7007 15.607ZM21.1011 19.2301C21.3118 19.1819 21.545 19.1858 21.7378 19.2906C21.9812 19.416 22.1388 19.6838 22.1235 19.9537C22.1026 20.3428 21.8153 20.6923 21.4468 20.8248C21.184 20.9236 20.8705 20.9111 20.6333 20.7555C20.4437 20.6354 20.3133 20.4235 20.312 20.1998C20.3179 19.7543 20.6521 19.3259 21.1011 19.2301ZM17.8306 15.526C18.4398 15.4943 19.053 15.5679 19.6411 15.7252C19.7558 15.7601 19.8825 15.7703 19.9858 15.8346C20.0518 15.8785 20.0503 15.9654 20.0405 16.0348C19.8907 17.1935 19.7421 18.3527 19.5923 19.5113C19.5697 19.636 19.5783 19.7713 19.5151 19.8854C19.4658 19.9753 19.3716 20.0287 19.2769 20.0621C18.5711 20.3379 17.7981 20.4443 17.0415 20.3746C16.5804 20.335 16.0867 20.2417 15.7368 19.9215C15.4049 19.6194 15.2881 19.1611 15.2671 18.732C15.2481 18.2416 15.3018 17.746 15.436 17.2731C15.5791 16.774 15.8542 16.2942 16.2876 15.985C16.7287 15.6611 17.2899 15.5457 17.8306 15.526ZM10.6802 14.0563C10.9231 14.0592 11.1425 14.249 11.1782 14.484C11.4958 16.343 11.8149 18.2022 12.1313 20.0612C12.1596 20.1626 12.0757 20.2761 11.9673 20.275C11.5293 20.2783 11.0908 20.276 10.6528 20.276C10.5379 20.2816 10.4312 20.1898 10.4233 20.0768C10.3885 19.7569 10.3614 19.4357 10.3257 19.1158C10.3251 19.0707 10.2817 19.0374 10.2368 19.0426C9.7159 19.0399 9.19425 19.042 8.67334 19.0406C8.62683 19.0382 8.56869 19.044 8.5542 19.0963C8.40381 19.4343 8.26025 19.7759 8.10986 20.1139C8.07425 20.197 7.98435 20.2507 7.89307 20.2477C7.45474 20.2512 7.01596 20.2537 6.57764 20.2545C6.47908 20.2687 6.40179 20.1548 6.45459 20.0709C7.30646 18.2172 8.16048 16.3638 9.01318 14.5104C9.09997 14.3084 9.27823 14.1461 9.49365 14.0856C9.62505 14.0467 9.76363 14.0556 9.89893 14.0553C10.1592 14.0564 10.4201 14.053 10.6802 14.0563ZM17.939 16.8326C17.6876 16.8093 17.4346 16.9241 17.2739 17.1119C17.1129 17.2931 17.0365 17.5284 16.9868 17.7594C16.9257 18.0384 16.876 18.3353 16.9604 18.6149C17.0169 18.805 17.1747 18.9736 17.3794 19.0065C17.6209 19.0492 17.8692 19.0015 18.1021 18.9362C18.1908 18.2591 18.2789 17.5819 18.3677 16.9049C18.2264 16.8735 18.0831 16.8452 17.939 16.8326ZM22.6245 14.8102C22.7267 14.8208 22.744 14.9417 22.7222 15.0211C22.4758 16.2171 22.2295 17.4142 21.9819 18.61C21.9723 18.6881 21.8969 18.7479 21.8169 18.7408C21.5181 18.7411 21.219 18.7433 20.9204 18.7408C20.8237 18.745 20.7502 18.6475 20.771 18.5572C20.8876 17.3703 21.0026 16.1824 21.1206 14.9957C21.1225 14.9119 21.1859 14.8393 21.2681 14.8199C21.3552 14.7984 21.4466 14.8079 21.5356 14.8063C21.8986 14.8098 22.2621 14.8001 22.6245 14.8102ZM9.91357 15.8268C9.66138 16.4252 9.42805 17.0319 9.18115 17.6324C9.16965 17.668 9.13198 17.7255 9.18408 17.7477C9.47006 17.7556 9.7572 17.7498 10.0435 17.7506C10.0986 17.7566 10.152 17.7092 10.1401 17.6529C10.088 17.0585 10.0319 16.4639 9.97607 15.8697C9.98445 15.8344 9.94343 15.8 9.91357 15.8268ZM14.4058 13.5651C14.586 13.5317 14.7828 13.5429 14.9429 13.6373C15.1724 13.7655 15.301 14.0324 15.2817 14.2877C15.2467 14.761 14.8479 15.1903 14.3647 15.2496C14.1437 15.2803 13.9077 15.2128 13.7476 15.0582C13.612 14.9307 13.5377 14.745 13.5444 14.5612C13.5732 14.0968 13.9258 13.6458 14.4058 13.5651ZM24.356 8.76428C24.4593 8.76147 24.5038 8.90114 24.4263 8.96349C23.8852 9.55219 23.3435 10.1403 22.8013 10.7281C23.2976 11.7715 23.7943 12.8148 24.2896 13.859C24.3585 13.9693 24.2646 14.1265 24.1323 14.1178C23.7131 14.1194 23.2937 14.1189 22.8745 14.1178C22.7933 14.1238 22.7251 14.0669 22.6978 13.9957C22.1801 12.8918 21.661 11.7882 21.1431 10.6842C21.6738 10.0777 22.2034 9.47035 22.7339 8.86388C22.7877 8.79793 22.872 8.75876 22.9585 8.76232C23.4241 8.76259 23.8903 8.76017 24.356 8.76428ZM8.39209 7.17053C8.53301 7.17271 8.6743 7.16552 8.81494 7.17345C8.90813 7.17758 8.98249 7.2719 8.96436 7.36193C8.75899 8.77565 8.5457 10.1884 8.34033 11.6022C8.30799 11.7627 8.45156 11.9246 8.61768 11.9176C9.39812 11.9203 10.179 11.9178 10.9595 11.9186C11.0306 11.9079 11.1031 11.9692 11.0874 12.0416C11.0302 12.4431 10.9683 12.8448 10.9077 13.2457C10.9043 13.3162 10.8395 13.3757 10.7671 13.3717C9.88281 13.3733 8.99805 13.3722 8.11377 13.3717C7.53528 13.3742 6.94207 13.0428 6.71826 12.5074C6.64585 12.3349 6.62513 12.1429 6.65186 11.9586C6.86143 10.4164 7.06993 8.87361 7.27979 7.33166C7.2841 7.26473 7.32816 7.20024 7.39502 7.18029C7.72597 7.15785 8.06002 7.17682 8.39209 7.17053ZM20.813 6.92443C21.0267 6.9258 21.2408 6.92185 21.4546 6.92541C21.5117 6.91979 21.5619 6.97565 21.5474 7.03088C21.258 9.09357 20.9645 11.156 20.6743 13.2184C20.6676 13.2608 20.6601 13.3132 20.6138 13.3326C20.5595 13.3465 20.5029 13.3413 20.4478 13.3424C20.0287 13.3405 19.6097 13.3433 19.1909 13.3414C19.1223 13.3516 19.064 13.2842 19.0835 13.2194C19.3731 11.1559 19.6658 9.09304 19.9565 7.0299C19.9613 6.9935 19.9712 6.94952 20.0103 6.9342C20.2761 6.91179 20.5458 6.93071 20.813 6.92443ZM13.3901 8.72717C13.4896 8.72654 13.5669 8.82842 13.5454 8.92248C13.3454 10.329 13.1418 11.735 12.9409 13.1412C12.9387 13.2411 12.853 13.3347 12.7476 13.3287C12.3188 13.3298 11.8901 13.3295 11.4614 13.3287C11.385 13.3391 11.3133 13.267 11.3325 13.192C11.5343 11.7579 11.7414 10.3241 11.9448 8.89025C11.9497 8.82414 11.9889 8.75863 12.0552 8.73595C12.1075 8.72101 12.1633 8.72658 12.2173 8.72521C12.6081 8.72822 12.9993 8.72224 13.3901 8.72717ZM16.8198 8.609C17.2796 8.6118 17.7628 8.71468 18.1216 9.01232C18.4498 9.27944 18.6283 9.69039 18.6646 10.1012C18.6976 10.3948 18.6364 10.6865 18.6021 10.9772C18.5019 11.7169 18.3861 12.4551 18.2739 13.193C18.271 13.2769 18.1909 13.3399 18.1069 13.3287C17.6867 13.3274 17.2664 13.3309 16.8462 13.3268C16.7502 13.3273 16.6817 13.2264 16.7065 13.1383C16.7902 12.5626 16.8726 11.9859 16.9624 11.4108C17.009 11.0929 17.0757 10.776 17.0796 10.4537C17.0765 10.3105 17.0765 10.146 16.9683 10.0358C16.8494 9.91672 16.676 9.8702 16.5122 9.85021C16.3002 9.82531 16.086 9.84585 15.8765 9.87951C15.7113 11.0218 15.5453 12.164 15.3804 13.3063C15.1324 13.0986 14.8071 12.9652 14.4771 13.0006C14.2337 13.0085 14.014 13.1219 13.812 13.2447C13.9663 12.2053 14.1186 11.1652 14.2788 10.1266C14.3259 9.84877 14.3601 9.56799 14.4312 9.29455C14.4736 9.138 14.5406 8.97495 14.6782 8.8756C14.8662 8.73532 15.1089 8.70225 15.3364 8.67053C15.8284 8.61661 16.3251 8.61229 16.8198 8.609ZM12.9487 6.68713C13.1401 6.64861 13.3514 6.66037 13.519 6.76623C13.7422 6.89928 13.8631 7.16436 13.8413 7.41662C13.8018 7.87217 13.4284 8.28284 12.9673 8.36193C12.7538 8.40052 12.5209 8.35409 12.3521 8.21642C12.1852 8.08505 12.092 7.8718 12.106 7.66271C12.1429 7.21038 12.4822 6.77387 12.9487 6.68713Z" fill="#FEFEFE"/>
</svg>
