<svg width="32" height="32" viewBox="0 0 32 32" fill="none" xmlns="http://www.w3.org/2000/svg">
<path d="M14.8879 8.07318C16.5171 7.85908 18.2214 8.11058 19.6857 8.86224C21.2812 9.66124 22.5742 11.0282 23.2922 12.6484C23.8977 14.0052 24.1187 15.5244 23.9406 16.996C23.7564 18.5743 23.1002 20.1015 22.0471 21.3036C20.9426 22.5763 19.4096 23.4782 17.7502 23.8202C16.0233 24.1796 14.1739 24.0027 12.5695 23.2636C10.9494 22.5215 9.60483 21.2077 8.83125 19.6152C7.98888 17.9102 7.7866 15.913 8.22676 14.0693C8.59148 12.5162 9.43433 11.0713 10.6359 10.0068C11.8074 8.94829 13.3173 8.27358 14.8879 8.07318ZM18.1555 11.0947C17.301 10.6719 16.3173 10.5237 15.3723 10.6445C14.583 10.7449 13.8163 11.0357 13.1701 11.498C12.3103 12.1044 11.6712 12.9944 11.3234 13.9775C10.9147 15.1316 10.8759 16.4091 11.1887 17.5908C11.5057 18.7875 12.2391 19.8902 13.2844 20.581C14.2964 21.2675 15.5786 21.5262 16.7863 21.3378C17.7725 21.1865 18.7074 20.7183 19.4104 20.0156C20.2279 19.2262 20.7391 18.1564 20.927 17.0478C21.1304 15.8327 20.9842 14.5472 20.4445 13.4326C19.9693 12.4326 19.1615 11.5809 18.1555 11.0947Z" fill="white"/>
<path d="M2.66699 4.6665C2.66699 3.56193 3.56242 2.6665 4.66699 2.6665H27.3337C28.4382 2.6665 29.3337 3.56193 29.3337 4.6665V27.3332C29.3337 28.4377 28.4382 29.3332 27.3337 29.3332H4.66699C3.56242 29.3332 2.66699 28.4377 2.66699 27.3332V4.6665Z" fill="#4C3494"/>
<path d="M14.7018 6.75202C16.6026 6.50224 18.591 6.79489 20.2994 7.67194C22.1607 8.60413 23.6688 10.1988 24.5065 12.0889C25.2131 13.6721 25.4702 15.4451 25.2623 17.1622C25.0474 19.0034 24.282 20.7842 23.0534 22.1866C21.7649 23.6713 19.9775 24.7239 18.0416 25.1231C16.0268 25.5424 13.8685 25.336 11.9967 24.4737C10.1065 23.6078 8.53789 22.0749 7.63539 20.2169C6.65258 18.2276 6.41574 15.8973 6.92933 13.7462C7.35487 11.9344 8.33915 10.2497 9.74085 9.00788C11.1076 7.77289 12.8693 6.98576 14.7018 6.75202ZM18.5153 10.2784C17.5184 9.78512 16.3707 9.61206 15.2682 9.753C14.3475 9.87025 13.4536 10.2089 12.6998 10.7481C11.6967 11.4556 10.9514 12.4937 10.5455 13.6407C10.0686 14.9872 10.0225 16.4779 10.3873 17.8565C10.7572 19.2526 11.6132 20.5389 12.8327 21.3448C14.0134 22.1458 15.5096 22.4474 16.9186 22.2276C18.0688 22.0511 19.1592 21.5052 19.9791 20.6856C20.933 19.7647 21.5305 18.5163 21.7496 17.2227C21.987 15.8051 21.8158 14.3054 21.1862 13.005C20.6317 11.8383 19.689 10.8456 18.5153 10.2784Z" fill="white"/>
</svg>
