<svg width="32" height="32" viewBox="0 0 32 32" fill="none" xmlns="http://www.w3.org/2000/svg">
<path d="M8.00016 5.33341H20.0002V8.00008C21.4729 8.00008 22.6668 6.80617 22.6668 5.33341C22.6668 3.86066 21.4729 2.66675 20.0002 2.66675H8.00016C6.5274 2.66675 5.3335 3.86066 5.3335 5.33342V22.6667C5.51506 23.0379 5.76543 23.405 6.07125 23.7392C6.92914 24.6768 7.5071 24.8476 8.00016 24.8476V5.33341Z" fill="#181C21"/>
<path d="M5.3335 26.6667V25.6002C6.10892 26.221 7.04425 26.6667 8.00016 26.6667H20.0002V24.0001C21.4729 24.0001 22.6668 25.194 22.6668 26.6667C22.6668 28.1395 21.4729 29.3334 20.0002 29.3334H8.00016C6.5274 29.3334 5.3335 28.1395 5.3335 26.6667Z" fill="#181C21"/>
<path d="M15.3335 24.0001C15.3335 24.7365 14.7365 25.3334 14.0002 25.3334C13.2638 25.3334 12.6668 24.7365 12.6668 24.0001C12.6668 23.2637 13.2638 22.6667 14.0002 22.6667C14.7365 22.6667 15.3335 23.2637 15.3335 24.0001Z" fill="#181C21"/>
<path d="M10.6668 8.00008C10.6668 7.2637 11.2638 6.66675 12.0002 6.66675H16.0002C16.7365 6.66675 17.3335 7.2637 17.3335 8.00008C17.3335 8.73646 16.7365 9.33342 16.0002 9.33342H12.0002C11.2638 9.33342 10.6668 8.73646 10.6668 8.00008Z" fill="#181C21"/>
<path d="M15.0544 19.3876H15.7987C16.0643 19.3876 16.1971 19.2558 16.1971 18.9922V16.7447H16.9834L18.3567 19.1171C18.4545 19.2974 18.6118 19.3876 18.8285 19.3876H19.6462C19.7999 19.3876 19.9013 19.3425 19.9502 19.2523C20.0061 19.1621 19.9956 19.0512 19.9187 18.9194L18.5035 16.5158C18.9158 16.3354 19.2373 16.0614 19.4679 15.6938C19.7056 15.3261 19.8244 14.8891 19.8244 14.3828C19.8244 13.9041 19.723 13.4879 19.5204 13.1342C19.3177 12.7734 19.0311 12.496 18.6607 12.3017C18.2903 12.1006 17.857 12 17.3608 12H15.0544C14.7958 12 14.6665 12.1283 14.6665 12.385V18.9922C14.6665 19.2558 14.7958 19.3876 15.0544 19.3876ZM16.1971 15.392V13.3527H17.2664C17.5809 13.3527 17.8325 13.4463 18.0212 13.6336C18.2099 13.8209 18.3043 14.0671 18.3043 14.3724C18.3043 14.6776 18.2064 14.9238 18.0107 15.1111C17.822 15.2984 17.5739 15.392 17.2664 15.392H16.1971Z" fill="#181C21"/>
<path d="M21.2151 21.3333H21.907C22.1726 21.3333 22.3054 21.205 22.3054 20.9483V18.961C22.4871 19.1344 22.7142 19.2731 22.9868 19.3772C23.2664 19.4743 23.5704 19.5229 23.8989 19.5229C24.437 19.5229 24.9123 19.398 25.3246 19.1483C25.744 18.8986 26.0724 18.5587 26.3101 18.1286C26.5477 17.6916 26.6665 17.1991 26.6665 16.6511C26.6665 16.0961 26.5442 15.6036 26.2996 15.1735C26.062 14.7435 25.737 14.4036 25.3246 14.1538C24.9123 13.9041 24.4405 13.7793 23.9093 13.7793C23.5459 13.7793 23.2174 13.8417 22.9239 13.9666C22.6373 14.0845 22.4032 14.2544 22.2215 14.4764V14.3099C22.2215 14.0463 22.0922 13.9145 21.8336 13.9145H21.2151C20.9565 13.9145 20.8272 14.0463 20.8272 14.3099V20.9483C20.8272 21.205 20.9565 21.3333 21.2151 21.3333ZM23.7416 18.139C23.3293 18.139 22.9868 18.0002 22.7142 17.7228C22.4417 17.4384 22.3054 17.0811 22.3054 16.6511C22.3054 16.221 22.4417 15.8672 22.7142 15.5897C22.9868 15.3053 23.3293 15.1631 23.7416 15.1631C24.154 15.1631 24.4964 15.3053 24.769 15.5897C25.0416 15.8672 25.1778 16.221 25.1778 16.6511C25.1778 17.0881 25.0416 17.4453 24.769 17.7228C24.4964 18.0002 24.154 18.139 23.7416 18.139Z" fill="#181C21"/>
</svg>
