<svg width="32" height="32" viewBox="0 0 32 32" fill="none" xmlns="http://www.w3.org/2000/svg">
<rect x="2.66699" y="2.6665" width="26.6667" height="26.6667" rx="2" fill="#EA501F"/>
<path d="M8.78469 11.8759H12.4248C12.536 10.5974 12.8793 9.44921 13.3724 8.56175C14.025 7.3885 14.9531 6.6665 16.0022 6.6665C17.0512 6.6665 17.9745 7.39352 18.632 8.56175C19.1251 9.44419 19.4683 10.5974 19.5795 11.8759H23.2148C23.645 11.8759 24.0318 12.2419 23.9979 12.6882L23.268 23.2524C23.1761 24.5761 22.3736 25.3332 21.2086 25.3332H10.7957C9.50015 25.3332 8.8137 24.3956 8.73635 23.2524L8.00155 12.6932C7.97255 12.247 8.35445 11.8759 8.78469 11.8759ZM13.3337 11.8759H18.661C18.5546 10.7679 18.2597 9.78514 17.8392 9.03305C17.3557 8.15563 16.6983 7.60911 16.0022 7.60911C15.3012 7.60911 14.6486 8.15563 14.1555 9.03807C13.7349 9.78514 13.4449 10.7729 13.3337 11.8759Z" fill="white"/>
<path d="M12.7359 21.9096C12.5637 21.7964 12.5194 21.5746 12.6375 21.4095C12.7556 21.2444 12.9868 21.2019 13.159 21.3151C13.2673 21.3859 13.3805 21.4567 13.5035 21.5274C14.3695 22.0323 15.1666 22.2823 15.8309 22.2823C16.4312 22.2823 16.9183 22.0653 17.2283 21.6265C17.248 21.5935 17.2677 21.5746 17.2726 21.5605C17.3612 21.4237 17.4251 21.2774 17.4694 21.1359C17.558 20.8434 17.5432 20.5414 17.4202 20.2678C17.2874 19.98 17.0315 19.7016 16.6329 19.4704C16.3672 19.3148 16.0375 19.1779 15.639 19.0741C14.6254 18.8005 13.8774 18.4136 13.474 17.8947C13.0311 17.3238 12.9967 16.635 13.469 15.7999C13.7839 15.2479 14.4285 14.9035 15.2453 14.8422C15.949 14.7903 16.7953 14.9507 17.6564 15.3706C17.8434 15.4602 17.9172 15.6773 17.8188 15.8565C17.7204 16.0358 17.4989 16.1066 17.312 16.0122C16.5788 15.6537 15.8801 15.5169 15.2995 15.5593C14.7434 15.6018 14.3203 15.8094 14.1333 16.1396C13.8184 16.6916 13.8233 17.1257 14.0792 17.4559C14.3744 17.8381 14.9895 18.1353 15.8456 18.3665C16.3082 18.4938 16.7018 18.6543 17.0266 18.843C17.5629 19.1543 17.9221 19.5459 18.114 19.9705C18.3108 20.4093 18.3354 20.8717 18.2026 21.3246C18.1435 21.5274 18.05 21.7303 17.9221 21.9285C17.8926 21.9709 17.8729 22.004 17.8581 22.0275C17.4005 22.6739 16.6969 22.9947 15.8407 22.9994C15.0387 22.9994 14.1038 22.7164 13.1197 22.1408C12.9967 22.0747 12.8687 21.9992 12.7359 21.9096Z" fill="#EA501F"/>
</svg>
