<svg width="24" height="24" viewBox="0 0 24 24" fill="none" xmlns="http://www.w3.org/2000/svg">
<circle cx="12" cy="12" r="12" fill="#001A41"/>
<path d="M18.75 7.03498C16.2525 6.78748 13.74 6.65998 11.235 6.65998C9.75 6.65998 8.265 6.73498 6.78 6.88498L5.25 7.03498" stroke="white" stroke-linecap="round" stroke-linejoin="round"/>
<path d="M9.375 6.27751L9.54 5.29501C9.66 4.58251 9.75 4.05001 11.0175 4.05001H12.9825C14.25 4.05001 14.3475 4.61251 14.46 5.30251L14.625 6.27751" stroke="white" stroke-linecap="round" stroke-linejoin="round"/>
<path d="M17.1373 9.40499L16.6498 16.9575C16.5673 18.135 16.4998 19.05 14.4073 19.05H9.5923C7.4998 19.05 7.4323 18.135 7.3498 16.9575L6.8623 9.40499" stroke="white" stroke-linecap="round" stroke-linejoin="round"/>
<path d="M10.7476 14.925H13.2451" stroke="white" stroke-linecap="round" stroke-linejoin="round"/>
<path d="M10.125 11.925H13.875" stroke="white" stroke-linecap="round" stroke-linejoin="round"/>
</svg>
