<svg width="128" height="128" viewBox="0 0 128 128" fill="none" xmlns="http://www.w3.org/2000/svg">
<path d="M63.9998 119.24C94.508 119.24 119.24 94.508 119.24 63.9998C119.24 33.4916 94.508 8.75977 63.9998 8.75977C33.4916 8.75977 8.75977 33.4916 8.75977 63.9998C8.75977 94.508 33.4916 119.24 63.9998 119.24Z" fill="#E0E0E0"/>
<path d="M5.23987 86.2599L122.43 85.1499C124.98 85.1499 123.2 81.7399 121.2 79.2799L103.24 57.9999C103.05 57.7366 102.803 57.5197 102.517 57.3656C102.231 57.2114 101.914 57.124 101.59 57.1099H22.9999C22.6886 57.1222 22.3838 57.2029 22.1073 57.3464C21.8307 57.4898 21.5892 57.6925 21.3999 57.9399L3.64987 78.6899C1.57987 81.1099 2.66987 86.2599 5.23987 86.2599Z" fill="white"/>
<path d="M2.58987 82.5996V96.4896C2.58855 96.7308 2.63491 96.9698 2.72629 97.193C2.81767 97.4162 2.95225 97.6191 3.12232 97.7901C3.29238 97.9611 3.49456 98.0968 3.71724 98.1894C3.93992 98.282 4.17871 98.3296 4.41987 98.3296H120.85C121.193 98.3296 121.534 98.2618 121.851 98.13C122.168 97.9982 122.456 97.8051 122.699 97.5616C122.941 97.3182 123.133 97.0293 123.264 96.7115C123.395 96.3937 123.461 96.0532 123.46 95.7096V86.1596C123.457 85.4751 123.187 84.8187 122.707 84.3309C122.226 83.8431 121.574 83.5627 120.89 83.5496L2.69987 83.3696" fill="white"/>
<path d="M20.1696 60.43C19.9951 60.4287 19.8245 60.3783 19.6773 60.2846C19.5301 60.191 19.4122 60.0578 19.3371 59.9003C19.262 59.7428 19.2328 59.5673 19.2526 59.394C19.2725 59.2206 19.3408 59.0564 19.4496 58.92L21.4496 56.53C21.6124 56.3622 21.8323 56.2619 22.0657 56.249C22.2991 56.2361 22.5287 56.3115 22.709 56.4602C22.8893 56.609 23.0069 56.8202 23.0386 57.0518C23.0702 57.2833 23.0134 57.5183 22.8796 57.71L20.8796 60.09C20.7958 60.1979 20.688 60.2848 20.5648 60.3438C20.4415 60.4028 20.3062 60.4323 20.1696 60.43Z" fill="#0A1C40"/>
<path d="M120.65 99.2498H116.65C116.52 99.2633 116.389 99.2494 116.265 99.2091C116.142 99.1687 116.028 99.1028 115.931 99.0156C115.834 98.9284 115.757 98.8218 115.704 98.7028C115.651 98.5838 115.623 98.455 115.623 98.3248C115.623 98.1945 115.651 98.0657 115.704 97.9467C115.757 97.8277 115.834 97.7212 115.931 97.634C116.028 97.5468 116.142 97.4808 116.265 97.4405C116.389 97.4002 116.52 97.3863 116.65 97.3998H120.65C120.882 97.3672 121.104 97.2829 121.3 97.1531C121.495 97.0233 121.659 96.8513 121.78 96.6498C121.844 96.5381 121.931 96.4411 122.035 96.3647C122.139 96.2884 122.257 96.2345 122.383 96.2065C122.509 96.1784 122.639 96.1768 122.765 96.2017C122.892 96.2267 123.012 96.2776 123.117 96.3513C123.223 96.425 123.312 96.5199 123.38 96.63C123.447 96.74 123.49 96.8628 123.507 96.9905C123.524 97.1182 123.515 97.2481 123.479 97.3719C123.443 97.4958 123.382 97.6108 123.3 97.7098C123.019 98.1646 122.63 98.5432 122.168 98.8118C121.705 99.0804 121.184 99.2309 120.65 99.2498ZM110.34 99.2498H104C103.771 99.226 103.559 99.1182 103.405 98.9474C103.251 98.7766 103.166 98.5548 103.166 98.3248C103.166 98.0948 103.251 97.873 103.405 97.7021C103.559 97.5313 103.771 97.4236 104 97.3998H110.31C110.439 97.3863 110.57 97.4002 110.694 97.4405C110.818 97.4808 110.932 97.5468 111.029 97.634C111.125 97.7212 111.203 97.8277 111.256 97.9467C111.309 98.0657 111.336 98.1945 111.336 98.3248C111.336 98.455 111.309 98.5838 111.256 98.7028C111.203 98.8218 111.125 98.9284 111.029 99.0156C110.932 99.1028 110.818 99.1687 110.694 99.2091C110.57 99.2494 110.439 99.2633 110.31 99.2498H110.34ZM97.7298 99.2498H91.4198C91.191 99.226 90.9792 99.1182 90.8252 98.9474C90.6713 98.7766 90.5861 98.5548 90.5861 98.3248C90.5861 98.0948 90.6713 97.873 90.8252 97.7021C90.9792 97.5313 91.191 97.4236 91.4198 97.3998H97.7298C97.9585 97.4236 98.1703 97.5313 98.3243 97.7021C98.4782 97.873 98.5635 98.0948 98.5635 98.3248C98.5635 98.5548 98.4782 98.7766 98.3243 98.9474C98.1703 99.1182 97.9585 99.226 97.7298 99.2498ZM85.1098 99.2498H78.8098C78.6802 99.2633 78.5493 99.2494 78.4254 99.2091C78.3016 99.1687 78.1876 99.1028 78.0908 99.0156C77.9941 98.9284 77.9167 98.8218 77.8638 98.7028C77.8108 98.5838 77.7835 98.455 77.7835 98.3248C77.7835 98.1945 77.8108 98.0657 77.8638 97.9467C77.9167 97.8277 77.9941 97.7212 78.0908 97.634C78.1876 97.5468 78.3016 97.4808 78.4254 97.4405C78.5493 97.4002 78.6802 97.3863 78.8098 97.3998H85.1098C85.2393 97.3863 85.3703 97.4002 85.4941 97.4405C85.618 97.4808 85.7319 97.5468 85.8287 97.634C85.9255 97.7212 86.0028 97.8277 86.0558 97.9467C86.1087 98.0657 86.1361 98.1945 86.1361 98.3248C86.1361 98.455 86.1087 98.5838 86.0558 98.7028C86.0028 98.8218 85.9255 98.9284 85.8287 99.0156C85.7319 99.1028 85.618 99.1687 85.4941 99.2091C85.3703 99.2494 85.2393 99.2633 85.1098 99.2498ZM72.4998 99.2498H66.1998C66.0702 99.2633 65.9393 99.2494 65.8154 99.2091C65.6916 99.1687 65.5776 99.1028 65.4808 99.0156C65.3841 98.9284 65.3067 98.8218 65.2538 98.7028C65.2008 98.5838 65.1735 98.455 65.1735 98.3248C65.1735 98.1945 65.2008 98.0657 65.2538 97.9467C65.3067 97.8277 65.3841 97.7212 65.4808 97.634C65.5776 97.5468 65.6916 97.4808 65.8154 97.4405C65.9393 97.4002 66.0702 97.3863 66.1998 97.3998H72.4998C72.6293 97.3863 72.7603 97.4002 72.8841 97.4405C73.0079 97.4808 73.1219 97.5468 73.2187 97.634C73.3155 97.7212 73.3928 97.8277 73.4458 97.9467C73.4987 98.0657 73.5261 98.1945 73.5261 98.3248C73.5261 98.455 73.4987 98.5838 73.4458 98.7028C73.3928 98.8218 73.3155 98.9284 73.2187 99.0156C73.1219 99.1028 73.0079 99.1687 72.8841 99.2091C72.7603 99.2494 72.6293 99.2633 72.4998 99.2498ZM59.8898 99.2498H53.5798C53.351 99.226 53.1392 99.1182 52.9853 98.9474C52.8313 98.7766 52.7461 98.5548 52.7461 98.3248C52.7461 98.0948 52.8313 97.873 52.9853 97.7021C53.1392 97.5313 53.351 97.4236 53.5798 97.3998H59.8898C60.1185 97.4236 60.3303 97.5313 60.4843 97.7021C60.6382 97.873 60.7235 98.0948 60.7235 98.3248C60.7235 98.5548 60.6382 98.7766 60.4843 98.9474C60.3303 99.1182 60.1185 99.226 59.8898 99.2498ZM47.2798 99.2498H40.9998C40.8702 99.2633 40.7393 99.2494 40.6154 99.2091C40.4916 99.1687 40.3776 99.1028 40.2808 99.0156C40.1841 98.9284 40.1067 98.8218 40.0538 98.7028C40.0008 98.5838 39.9735 98.455 39.9735 98.3248C39.9735 98.1945 40.0008 98.0657 40.0538 97.9467C40.1067 97.8277 40.1841 97.7212 40.2808 97.634C40.3776 97.5468 40.4916 97.4808 40.6154 97.4405C40.7393 97.4002 40.8702 97.3863 40.9998 97.3998H47.3098C47.5385 97.4236 47.7503 97.5313 47.9043 97.7021C48.0583 97.873 48.1435 98.0948 48.1435 98.3248C48.1435 98.5548 48.0583 98.7766 47.9043 98.9474C47.7503 99.1182 47.5385 99.226 47.3098 99.2498H47.2798ZM34.6598 99.2498H28.3598C28.2302 99.2633 28.0993 99.2494 27.9754 99.2091C27.8516 99.1687 27.7376 99.1028 27.6408 99.0156C27.5441 98.9284 27.4667 98.8218 27.4138 98.7028C27.3608 98.5838 27.3335 98.455 27.3335 98.3248C27.3335 98.1945 27.3608 98.0657 27.4138 97.9467C27.4667 97.8277 27.5441 97.7212 27.6408 97.634C27.7376 97.5468 27.8516 97.4808 27.9754 97.4405C28.0993 97.4002 28.2302 97.3863 28.3598 97.3998H34.6598C34.7893 97.3863 34.9203 97.4002 35.0441 97.4405C35.168 97.4808 35.282 97.5468 35.3787 97.634C35.4755 97.7212 35.5528 97.8277 35.6058 97.9467C35.6587 98.0657 35.6861 98.1945 35.6861 98.3248C35.6861 98.455 35.6587 98.5838 35.6058 98.7028C35.5528 98.8218 35.4755 98.9284 35.3787 99.0156C35.282 99.1028 35.168 99.1687 35.0441 99.2091C34.9203 99.2494 34.7893 99.2633 34.6598 99.2498ZM22.0498 99.2498H15.7398C15.511 99.226 15.2992 99.1182 15.1453 98.9474C14.9913 98.7766 14.9061 98.5548 14.9061 98.3248C14.9061 98.0948 14.9913 97.873 15.1453 97.7021C15.2992 97.5313 15.511 97.4236 15.7398 97.3998H22.0498C22.1793 97.3863 22.3103 97.4002 22.4341 97.4405C22.558 97.4808 22.6719 97.5468 22.7687 97.634C22.8655 97.7212 22.9428 97.8277 22.9958 97.9467C23.0487 98.0657 23.0761 98.1945 23.0761 98.3248C23.0761 98.455 23.0487 98.5838 22.9958 98.7028C22.9428 98.8218 22.8655 98.9284 22.7687 99.0156C22.6719 99.1028 22.558 99.1687 22.4341 99.2091C22.3103 99.2494 22.1793 99.2633 22.0498 99.2498ZM9.43977 99.2498H5.37977C4.85745 99.2326 4.34709 99.089 3.89249 98.8312C3.43789 98.5734 3.05263 98.2092 2.76977 97.7698C2.68639 97.6722 2.6241 97.5585 2.58681 97.4358C2.54952 97.313 2.53804 97.1838 2.55308 97.0564C2.56813 96.929 2.60938 96.8061 2.67424 96.6954C2.7391 96.5846 2.82617 96.4886 2.92997 96.4131C3.03376 96.3377 3.15204 96.2846 3.27737 96.2571C3.4027 96.2296 3.53236 96.2283 3.6582 96.2534C3.78404 96.2784 3.90333 96.3292 4.00858 96.4026C4.11383 96.476 4.20276 96.5704 4.26977 96.6798C4.38911 96.8752 4.5508 97.0413 4.74291 97.166C4.93503 97.2906 5.15266 97.3705 5.37977 97.3998H9.43977C9.66851 97.4236 9.88031 97.5313 10.0343 97.7021C10.1882 97.873 10.2735 98.0948 10.2735 98.3248C10.2735 98.5548 10.1882 98.7766 10.0343 98.9474C9.88031 99.1182 9.66851 99.226 9.43977 99.2498ZM2.55977 91.9998C2.43895 91.9998 2.31932 91.976 2.2077 91.9297C2.09608 91.8835 1.99466 91.8157 1.90923 91.7303C1.8238 91.6449 1.75603 91.5435 1.7098 91.4318C1.66356 91.3202 1.63977 91.2006 1.63977 91.0798V84.7998C1.62628 84.6702 1.64015 84.5393 1.68049 84.4154C1.72084 84.2916 1.78674 84.1776 1.87395 84.0808C1.96115 83.9841 2.0677 83.9067 2.18671 83.8538C2.30571 83.8008 2.43451 83.7735 2.56477 83.7735C2.69502 83.7735 2.82382 83.8008 2.94282 83.8538C3.06183 83.9067 3.16838 83.9841 3.25559 84.0808C3.34279 84.1776 3.4087 84.2916 3.44904 84.4154C3.48938 84.5393 3.50325 84.6702 3.48977 84.7998V91.1098C3.48193 91.3503 3.38019 91.5781 3.20634 91.7445C3.03249 91.9109 2.80038 92.0025 2.55977 91.9998ZM123.46 91.9998C123.215 91.9971 122.981 91.898 122.809 91.7239C122.636 91.5498 122.54 91.3147 122.54 91.0698V84.7398C122.564 84.511 122.671 84.2992 122.842 84.1453C123.013 83.9913 123.235 83.9061 123.465 83.9061C123.695 83.9061 123.917 83.9913 124.087 84.1453C124.258 84.2992 124.366 84.511 124.39 84.7398V91.0498C124.392 91.1736 124.37 91.2967 124.325 91.4118C124.279 91.527 124.211 91.6319 124.125 91.7204C124.038 91.8088 123.935 91.8791 123.82 91.9271C123.706 91.9751 123.584 91.9998 123.46 91.9998ZM121.46 79.9998C121.323 79.9954 121.188 79.963 121.064 79.9045C120.941 79.846 120.83 79.7627 120.74 79.6598L116.74 74.7898C116.662 74.6959 116.603 74.5875 116.566 74.4709C116.53 74.3542 116.517 74.2316 116.528 74.1099C116.54 73.9883 116.575 73.87 116.631 73.7619C116.688 73.6538 116.766 73.5579 116.86 73.4798C117.052 73.3256 117.296 73.2529 117.541 73.2772C117.786 73.3015 118.012 73.4209 118.17 73.6098L122.17 78.4798C122.248 78.5728 122.306 78.6804 122.342 78.7962C122.379 78.9121 122.391 79.0339 122.38 79.1548C122.369 79.2756 122.334 79.393 122.277 79.5003C122.221 79.6076 122.143 79.7025 122.05 79.7798C121.863 79.9087 121.634 79.9623 121.41 79.9298L121.46 79.9998ZM4.18977 79.9998C4.0135 80 3.84081 79.9501 3.69181 79.8559C3.54281 79.7618 3.42363 79.6272 3.34818 79.4679C3.27272 79.3086 3.24409 79.1311 3.26562 78.9562C3.28714 78.7813 3.35794 78.616 3.46977 78.4798L7.46977 73.6098C7.63268 73.5014 7.82565 73.4471 8.02119 73.4547C8.21674 73.4623 8.4049 73.5314 8.5589 73.6522C8.71289 73.7729 8.82487 73.9392 8.87888 74.1273C8.9329 74.3154 8.92621 74.5157 8.85977 74.6998L4.85977 79.5698C4.77241 79.6762 4.66251 79.7619 4.53799 79.8207C4.41348 79.8795 4.27746 79.9099 4.13977 79.9098L4.18977 79.9998ZM113.44 70.2798C113.304 70.2785 113.17 70.2474 113.047 70.1886C112.924 70.1299 112.816 70.0449 112.73 69.9398L108.73 65.0698C108.596 64.8781 108.539 64.6432 108.571 64.4116C108.602 64.18 108.72 63.9688 108.9 63.8201C109.081 63.6713 109.31 63.5959 109.544 63.6088C109.777 63.6217 109.997 63.722 110.16 63.8898L114.16 68.7598C114.272 68.896 114.342 69.0613 114.364 69.2362C114.385 69.4111 114.357 69.5886 114.281 69.7479C114.206 69.9072 114.087 70.0418 113.938 70.1359C113.789 70.2301 113.616 70.28 113.44 70.2798ZM12.1998 70.2798C11.9857 70.2748 11.7789 70.2011 11.6098 70.0698C11.5158 69.9917 11.4382 69.8958 11.3814 69.7877C11.3245 69.6796 11.2895 69.5613 11.2784 69.4396C11.2672 69.318 11.2802 69.1953 11.3164 69.0787C11.3527 68.962 11.4116 68.8537 11.4898 68.7598L15.4898 63.8998C15.5655 63.8043 15.6596 63.725 15.7665 63.6666C15.8734 63.6082 15.991 63.5718 16.1123 63.5597C16.2335 63.5476 16.3559 63.5599 16.4723 63.596C16.5887 63.6321 16.6967 63.6912 16.7898 63.7698C16.8841 63.8463 16.9623 63.9407 17.02 64.0477C17.0776 64.1546 17.1135 64.2718 17.1256 64.3927C17.1377 64.5136 17.1257 64.6356 17.0904 64.7518C17.0551 64.868 16.9971 64.9761 16.9198 65.0698L12.9198 69.9398C12.8168 70.0333 12.6941 70.1024 12.5609 70.1422C12.4276 70.182 12.2871 70.1915 12.1498 70.1698L12.1998 70.2798Z" fill="#0A1C40"/>
<path d="M105.36 60.4298C105.223 60.4306 105.089 60.4004 104.966 60.3415C104.843 60.2826 104.735 60.1965 104.65 60.0898L102.65 57.7098C102.496 57.5195 102.424 57.2764 102.448 57.0331C102.472 56.7898 102.591 56.5658 102.78 56.4098C102.873 56.3319 102.98 56.2732 103.096 56.237C103.212 56.2009 103.334 56.1881 103.455 56.1992C103.576 56.2104 103.693 56.2453 103.8 56.302C103.907 56.3588 104.002 56.4362 104.08 56.5298L106.08 58.9197C106.189 59.0561 106.257 59.2204 106.277 59.3937C106.297 59.5671 106.267 59.7425 106.192 59.9C106.117 60.0575 105.999 60.1907 105.852 60.2844C105.705 60.3781 105.534 60.4284 105.36 60.4298Z" fill="#0A1C40"/>
<path d="M29.2197 58.0499H26.1297C25.8831 58.0499 25.6465 57.952 25.4721 57.7776C25.2977 57.6031 25.1997 57.3666 25.1997 57.1199C25.1997 56.8733 25.2977 56.6367 25.4721 56.4623C25.6465 56.2879 25.8831 56.1899 26.1297 56.1899H29.2197C29.4664 56.1899 29.7029 56.2879 29.8773 56.4623C30.0517 56.6367 30.1497 56.8733 30.1497 57.1199C30.1497 57.3666 30.0517 57.6031 29.8773 57.7776C29.7029 57.952 29.4664 58.0499 29.2197 58.0499Z" fill="#0A1C40"/>
<path d="M90.7797 58.0499H84.6297C84.3831 58.0499 84.1465 57.952 83.9721 57.7776C83.7977 57.6031 83.6997 57.3666 83.6997 57.1199C83.6997 56.8733 83.7977 56.6367 83.9721 56.4623C84.1465 56.2879 84.3831 56.1899 84.6297 56.1899H90.7797C91.0264 56.1899 91.2629 56.2879 91.4373 56.4623C91.6117 56.6367 91.7097 56.8733 91.7097 57.1199C91.7097 57.3666 91.6117 57.6031 91.4373 57.7776C91.2629 57.952 91.0264 58.0499 90.7797 58.0499ZM78.4697 58.0499H72.3197C72.0731 58.0499 71.8365 57.952 71.6621 57.7776C71.4877 57.6031 71.3897 57.3666 71.3897 57.1199C71.3897 56.8733 71.4877 56.6367 71.6621 56.4623C71.8365 56.2879 72.0731 56.1899 72.3197 56.1899H78.4697C78.7164 56.1899 78.9529 56.2879 79.1273 56.4623C79.3017 56.6367 79.3997 56.8733 79.3997 57.1199C79.3997 57.3666 79.3017 57.6031 79.1273 57.7776C78.9529 57.952 78.7164 58.0499 78.4697 58.0499ZM66.1597 58.0499H59.9997C59.7531 58.0499 59.5165 57.952 59.3421 57.7776C59.1677 57.6031 59.0697 57.3666 59.0697 57.1199C59.0697 56.8733 59.1677 56.6367 59.3421 56.4623C59.5165 56.2879 59.7531 56.1899 59.9997 56.1899H66.1597C66.4064 56.1899 66.6429 56.2879 66.8173 56.4623C66.9917 56.6367 67.0897 56.8733 67.0897 57.1199C67.0897 57.3666 66.9917 57.6031 66.8173 57.7776C66.6429 57.952 66.4064 58.0499 66.1597 58.0499ZM53.8497 58.0499H47.6897C47.4431 58.0499 47.2065 57.952 47.0321 57.7776C46.8577 57.6031 46.7597 57.3666 46.7597 57.1199C46.7597 56.8733 46.8577 56.6367 47.0321 56.4623C47.2065 56.2879 47.4431 56.1899 47.6897 56.1899H53.8497C54.0964 56.1899 54.3329 56.2879 54.5073 56.4623C54.6817 56.6367 54.7797 56.8733 54.7797 57.1199C54.7797 57.3666 54.6817 57.6031 54.5073 57.7776C54.3329 57.952 54.0964 58.0499 53.8497 58.0499ZM41.5297 58.0499H35.3797C35.1331 58.0499 34.8965 57.952 34.7221 57.7776C34.5477 57.6031 34.4497 57.3666 34.4497 57.1199C34.4497 56.8733 34.5477 56.6367 34.7221 56.4623C34.8965 56.2879 35.1331 56.1899 35.3797 56.1899H41.5297C41.7764 56.1899 42.0129 56.2879 42.1873 56.4623C42.3617 56.6367 42.4597 56.8733 42.4597 57.1199C42.4597 57.3666 42.3617 57.6031 42.1873 57.7776C42.0129 57.952 41.7764 58.0499 41.5297 58.0499Z" fill="#0A1C40"/>
<path d="M99.9998 58.0499H96.9398C96.6931 58.0499 96.4566 57.952 96.2822 57.7776C96.1077 57.6031 96.0098 57.3666 96.0098 57.1199C96.0098 56.8733 96.1077 56.6367 96.2822 56.4623C96.4566 56.2879 96.6931 56.1899 96.9398 56.1899H99.9998C100.246 56.1899 100.483 56.2879 100.657 56.4623C100.832 56.6367 100.93 56.8733 100.93 57.1199C100.93 57.3666 100.832 57.6031 100.657 57.7776C100.483 57.952 100.246 58.0499 99.9998 58.0499Z" fill="#0A1C40"/>
<path d="M51.07 44.8799C50.47 44.8799 49.86 44.8799 49.25 44.8299C43.65 44.4899 38.89 42.5099 36.54 39.5299C35.7974 38.6065 35.3141 37.502 35.14 36.3299H34.69C26.0838 35.8235 17.9913 32.0668 12.05 25.8199C11.9543 25.7338 11.8775 25.6289 11.8244 25.5116C11.7714 25.3944 11.7432 25.2674 11.7418 25.1388C11.7403 25.0101 11.7656 24.8825 11.8159 24.7641C11.8663 24.6457 11.9407 24.539 12.0345 24.4508C12.1282 24.3627 12.2392 24.2949 12.3605 24.2518C12.4817 24.2088 12.6106 24.1913 12.739 24.2006C12.8673 24.21 12.9923 24.2458 13.1061 24.3059C13.2199 24.366 13.32 24.4491 13.4 24.5499C19.012 30.4451 26.6544 33.9875 34.78 34.4599H35.1C35.43 30.6399 38.27 26.6699 40.89 24.2999C42.66 22.6899 47.24 20.2199 50.33 21.4499C51.41 21.8799 52.73 22.9399 52.93 25.5699C53.24 29.6999 48.46 32.7799 46.99 33.6299C43.9267 35.3305 40.4931 36.2542 36.99 36.3199C37.1538 37.0736 37.4968 37.7768 37.99 38.3699C39.99 40.9499 44.28 42.6699 49.36 42.9699C53.8298 43.1719 58.2918 42.4253 62.4524 40.7793C66.6131 39.1333 70.3781 36.6252 73.5 33.4199C73.6782 33.2709 73.9058 33.194 74.1379 33.2043C74.37 33.2147 74.5898 33.3115 74.7541 33.4758C74.9184 33.6401 75.0152 33.8599 75.0255 34.092C75.0359 34.3241 74.959 34.5516 74.81 34.7299C68.5459 41.1131 60.0126 44.7615 51.07 44.8799ZM48.45 22.9999C46.1123 23.2146 43.9013 24.1592 42.13 25.6999C39.91 27.6999 37.31 31.2499 36.96 34.4999C40.1513 34.4173 43.2745 33.5593 46.06 31.9999C48.61 30.5299 51.26 28.0999 51.06 25.6699C50.96 24.3099 50.49 23.4899 49.62 23.1399C49.242 23.0212 48.8453 22.9737 48.45 22.9999Z" fill="#0B1C3F"/>
<path d="M77.9996 34.6699C77.9996 34.6699 76.1396 30.8199 82.2896 23.8499C88.4396 16.8799 100.65 14.3199 114.77 21.2899C112.731 24.7905 109.881 27.7498 106.46 29.9183C103.038 32.0867 99.1453 33.4009 95.1096 33.7499C95.1096 33.7499 94.1096 29.0999 90.3796 30.0899C89.7206 30.1916 89.0925 30.4382 88.5402 30.8118C87.988 31.1854 87.5255 31.6768 87.186 32.2506C86.8465 32.8244 86.6384 33.4664 86.5768 34.1303C86.5152 34.7941 86.6015 35.4634 86.8296 36.0899C86.8296 36.0899 83.2296 38.8899 77.9996 34.6699Z" fill="#8CC63F"/>
<path d="M85.4197 37.8998C81.6697 37.8998 78.1797 35.2898 78.0097 35.1598L77.4297 34.7198L77.7197 34.0598C77.7797 33.9298 83.3897 21.4698 99.7197 21.9998C99.9646 22.0076 100.197 22.1118 100.365 22.2897C100.534 22.4676 100.625 22.7048 100.62 22.9498C100.595 23.1973 100.479 23.4267 100.294 23.5931C100.109 23.7595 99.8685 23.851 99.6197 23.8498C86.6197 23.4098 81.1097 31.6298 79.7497 34.1098C81.5519 35.3202 83.6688 35.9772 85.8397 35.9998C85.3406 34.6211 85.3726 33.106 85.9297 31.7498C86.3342 31.0216 86.9097 30.4027 87.6065 29.9463C88.3033 29.4899 89.1006 29.2097 89.9297 29.1298C90.5907 28.9673 91.2801 28.9576 91.9455 29.1014C92.6109 29.2452 93.2347 29.5388 93.7697 29.9598C94.8378 30.9744 95.5111 32.3352 95.6697 33.7998C98.7297 33.1298 108.32 30.3698 113.17 21.6798C113.228 21.5726 113.307 21.4782 113.403 21.4023C113.498 21.3264 113.608 21.2704 113.726 21.2378C113.843 21.2051 113.966 21.1965 114.087 21.2123C114.208 21.2281 114.324 21.268 114.43 21.3298C114.537 21.3882 114.631 21.4673 114.707 21.5626C114.783 21.6578 114.84 21.7672 114.873 21.8844C114.907 22.0017 114.917 22.1244 114.902 22.2455C114.888 22.3666 114.85 22.4836 114.79 22.5898C108.54 33.7698 95.5197 35.7498 94.9697 35.8198L93.8797 35.9998V34.9998C93.895 33.7027 93.4241 32.4469 92.5597 31.4798C92.2386 31.2254 91.8626 31.0495 91.4615 30.9662C91.0605 30.8829 90.6455 30.8944 90.2497 30.9998C89.7123 31.0353 89.1912 31.1991 88.7301 31.4775C88.269 31.7559 87.8814 32.1407 87.5997 32.5998C86.8497 34.1298 87.9197 36.3098 87.9397 36.3298L88.4597 37.3298L87.3597 37.6398C86.728 37.8152 86.0752 37.9027 85.4197 37.8998Z" fill="#0B1C3F"/>
</svg>
